<?xml version="1.0" standalone="no"?>
<!DOCTYPE svg PUBLIC "-//W3C//DTD SVG 20010904//EN"
 "http://www.w3.org/TR/2001/REC-SVG-20010904/DTD/svg10.dtd">
<svg version="1.0" xmlns="http://www.w3.org/2000/svg"
 width="512.000000pt" height="512.000000pt" viewBox="0 0 512.000000 512.000000"
 preserveAspectRatio="xMidYMid meet">
<metadata>
Created by potrace 1.14, written by Peter Selinger 2001-2017
</metadata>
<g transform="translate(0.000000,512.000000) scale(0.100000,-0.100000)"
fill="#000000" stroke="none">
<path d="M1286 4428 c-4 -18 -16 -91 -27 -163 -11 -71 -22 -143 -25 -158 -2
-16 -16 -102 -30 -190 -55 -353 -63 -403 -68 -432 -3 -16 -10 -61 -16 -100 -6
-38 -13 -81 -15 -95 -2 -14 -14 -86 -25 -160 -12 -74 -23 -144 -25 -155 -5
-23 -15 -85 -21 -135 -2 -19 -7 -48 -11 -65 -3 -16 -7 -39 -8 -50 -2 -22 -11
-82 -25 -165 -12 -69 -17 -104 -25 -155 -3 -23 -7 -50 -9 -60 -4 -23 -27 -170
-31 -200 -2 -11 -10 -63 -19 -114 -9 -52 -19 -113 -21 -135 -3 -23 -10 -63
-15 -91 -5 -27 -12 -68 -15 -90 -5 -34 -19 -127 -41 -260 -2 -16 -6 -41 -9
-55 -2 -14 -7 -43 -10 -65 -3 -22 -10 -65 -15 -95 -5 -30 -12 -73 -15 -95 -2
-22 -7 -51 -9 -65 -3 -14 -17 -99 -31 -190 -14 -91 -28 -177 -31 -192 l-6 -28
1651 0 c1313 0 1651 3 1653 13 1 13 1 13 11 78 4 25 10 57 12 70 8 45 46 284
51 314 6 47 36 238 40 260 3 11 7 36 10 55 2 19 10 69 17 110 6 41 12 86 12
100 l0 25 -1118 1 c-614 1 -1120 4 -1124 8 -5 5 3 74 22 186 16 98 112 704
140 885 8 55 17 109 19 120 2 11 7 45 12 75 4 30 8 57 9 60 1 3 5 30 10 60 5
30 9 57 10 60 1 3 5 30 9 60 8 57 24 159 32 198 l4 22 1128 0 1128 0 23 143
c13 78 25 153 27 167 2 14 6 40 9 58 3 17 8 49 11 70 2 20 11 75 19 122 8 47
17 103 20 125 3 22 10 63 15 90 6 28 12 73 16 100 3 28 9 68 14 90 5 22 10 46
10 53 0 9 -336 12 -1649 12 l-1648 0 -7 -32z"/>
<path d="M2340 3075 c-5 -6 -12 -33 -15 -60 -3 -28 -10 -75 -15 -105 -5 -30
-12 -73 -15 -95 -4 -22 -8 -51 -11 -65 -3 -14 -7 -41 -10 -60 -2 -19 -11 -73
-19 -120 -8 -47 -17 -105 -20 -130 -3 -25 -12 -83 -20 -130 -8 -47 -17 -103
-21 -125 -3 -22 -9 -59 -14 -82 -5 -28 -4 -43 4 -45 22 -8 1945 -2 1952 5 5 4
9 15 10 25 2 9 6 37 10 62 4 25 8 56 9 70 2 14 10 70 19 125 9 55 19 116 22
135 3 19 7 46 10 60 2 14 11 70 19 125 9 55 17 107 20 115 2 8 6 38 10 65 3
28 8 57 10 65 4 15 9 48 20 130 l6 45 -976 0 c-660 0 -979 -3 -985 -10z"/>
</g>
</svg>
